# xmcd CD database file
#
# Track frame offsets:
#	150
#	17915
#	40908
#	60793
#	84818
#	105803
#	128160
#	155941
#	175842
#	196483
#	217312
#	240437
#
# Disc length: 3469 seconds
#
# Revision: 1
# Processed by: cddbd v1.5.1PL0 Copyright (c) Steve Scherf et al.
# Submitted via: jetAudio 5
#
DISCID=960d8b0c
DTITLE=Dark Hollow - Dark Hollow Band Greatest Hits Vol II
DYEAR=1900
DGENRE=
TTITLE0=River of Blood
TTITLE1=Silent Prayer
TTITLE2=Down In The Meadow
TTITLE3=Just Another Song
TTITLE4=Het Bob
TTITLE5=Seems Like It Is
TTITLE6=Child of Heaven
TTITLE7=The Edge
TTITLE8=Sweet Country Road
TTITLE9=Three Cheers For Loneliness
TTITLE10=Silver and Gold
TTITLE11=Matt's Song
EXTD=
EXTT0=
EXTT1=
EXTT2=
EXTT3=
EXTT4=
EXTT5=
EXTT6=
EXTT7=
EXTT8=
EXTT9=
EXTT10=
EXTT11=
PLAYORDER=
